<?xml version="1.0" encoding="UTF-8"?>
<!-- Generated by Pixelmator Pro 3.5.7 -->
<svg width="2400" height="660" viewBox="0 0 2400 660" xmlns="http://www.w3.org/2000/svg">
    <g id="Layer-1">
        <g id="Group">
            <g id="g1">
                <linearGradient id="linearGradient1" x1="299.027941" y1="152.841354" x2="1.186583" y2="450.682713" gradientUnits="userSpaceOnUse">
                    <stop offset="1e-06" stop-color="#00fffb" stop-opacity="1"/>
                    <stop offset="1" stop-color="#f5adff" stop-opacity="1"/>
                </linearGradient>
                <path id="Path" fill="url(#linearGradient1)" stroke="none" d="M 72.454102 307.426147 L 72.454102 307.426147 C 55.828369 290.80188 55.828369 263.8479 72.454102 247.222168 L 203.626709 116.049561 C 220.252441 99.423828 247.206421 99.423828 263.830688 116.049561 L 263.830688 116.049561 C 280.455078 132.673828 280.455078 159.627686 263.830688 176.253418 L 132.656616 307.426147 C 116.032227 324.050415 89.078369 324.050415 72.454102 307.426147 Z"/>
                <linearGradient id="linearGradient2" x1="394.720535" y1="248.533894" x2="96.877535" y2="546.376895" gradientUnits="userSpaceOnUse">
                    <stop offset="1e-06" stop-color="#00fffb" stop-opacity="1"/>
                    <stop offset="1" stop-color="#f5adff" stop-opacity="1"/>
                </linearGradient>
                <path id="path1" fill="url(#linearGradient2)" stroke="none" d="M 101.008545 236.301514 L 101.008545 236.301514 C 124.520264 236.301514 143.578735 255.359985 143.578735 278.871582 L 143.578735 464.378906 C 143.578735 487.88916 124.520264 506.949097 101.008545 506.949097 L 101.008545 506.949097 C 77.496948 506.949097 58.438354 487.88916 58.438354 464.378906 L 58.438354 278.871582 C 58.438354 255.359985 77.496948 236.301514 101.008545 236.301514 Z"/>
                <linearGradient id="linearGradient3" x1="306.461287" y1="160.184562" x2="8.59106" y2="458.054789" gradientUnits="userSpaceOnUse">
                    <stop offset="1e-06" stop-color="#00fffb" stop-opacity="1"/>
                    <stop offset="1" stop-color="#f5adff" stop-opacity="1"/>
                </linearGradient>
                <path id="path2" fill="url(#linearGradient3)" stroke="none" d="M 174.964478 303.466553 L 129.031494 349.399536 L 124.826416 353.604492 L 109.271118 369.161255 L 3.844482 474.586548 C 1.006104 477.424805 1.006104 482.049561 3.844482 484.887817 L 145.743652 626.786987 L 174.964478 656.007813 C 177.802734 658.846191 182.42749 658.846191 185.265747 656.007813 L 324.37915 516.894531 L 356.385864 484.887817 C 359.224121 482.049561 359.224121 477.424805 356.385864 474.586548 L 185.265747 303.466553 C 182.42749 300.628052 177.802734 300.628052 174.964478 303.466553 Z"/>
                <linearGradient id="linearGradient4" x1="207.943143" y1="645.115577" x2="414.663668" y2="438.395051" gradientUnits="userSpaceOnUse">
                    <stop offset="1e-06" stop-color="#00fffb" stop-opacity="0"/>
                    <stop offset="1" stop-color="#000000" stop-opacity="1"/>
                </linearGradient>
                <path id="path3" fill="url(#linearGradient4)" stroke="none" d="M 211.333618 329.53418 L 129.031494 349.399536 L 109.690674 354.076538 C 109.690674 354.235352 110.269165 358.912476 111.372192 367.058716 C 116.680176 407.631348 133.603638 535.130737 145.743652 626.786987 L 174.964478 656.007813 C 177.802734 658.846191 182.42749 658.846191 185.265747 656.007813 L 324.37915 516.894531 L 356.385864 484.887817 C 359.224121 482.049561 359.224121 477.424805 356.385864 474.586548 L 211.333618 329.53418 Z"/>
                <linearGradient id="linearGradient5" x1="113.966112" y1="314.33154" x2="600.677716" y2="-172.380064" gradientUnits="userSpaceOnUse">
                    <stop offset="1e-06" stop-color="#000034" stop-opacity="1"/>
                    <stop offset="1" stop-color="#f5adff" stop-opacity="1"/>
                </linearGradient>
                <path id="path4" fill="url(#linearGradient5)" stroke="none" d="M 290.998657 545.553955 L 120.66394 375.219116 C 105.254761 359.809937 105.254761 334.828125 120.66394 319.420166 L 317.942627 122.140015 C 333.351929 106.7323 358.333862 106.7323 373.741699 122.140015 L 544.077759 292.474854 C 559.485596 307.884155 559.485596 332.865967 544.077759 348.275146 L 346.797729 545.553955 C 331.389893 560.963257 306.406494 560.963257 290.998657 545.553955 Z"/>
                <linearGradient id="linearGradient6" x1="113.96616" y1="314.331492" x2="600.676552" y2="-172.3789" gradientUnits="userSpaceOnUse">
                    <stop offset="1e-06" stop-color="#000034" stop-opacity="1"/>
                    <stop offset="1" stop-color="#f5adff" stop-opacity="1"/>
                </linearGradient>
                <path id="path5" fill="url(#linearGradient6)" stroke="none" d="M 325.628174 197.576172 L 325.628174 197.576172 C 302.675171 174.623047 302.675171 137.409058 325.628174 114.45459 L 421.005981 19.078125 C 443.959106 -3.874878 481.173096 -3.874878 504.126099 19.078125 L 504.126099 19.078125 C 527.079102 42.03125 527.079102 79.245361 504.126099 102.198364 L 408.749634 197.576172 C 385.796631 220.529297 348.581177 220.529297 325.628174 197.576172 Z"/>
                <linearGradient id="linearGradient7" x1="476.684435" y1="208.152497" x2="476.684435" y2="519.582767" gradientUnits="userSpaceOnUse">
                    <stop offset="1e-06" stop-color="#00fffb" stop-opacity="1"/>
                    <stop offset="1" stop-color="#f5adff" stop-opacity="1"/>
                </linearGradient>
                <path id="path6" fill="url(#linearGradient7)" stroke="none" d="M 424.448242 415.825806 C 380.543945 468.341431 302.381592 475.322388 249.867554 431.418091 C 197.353394 387.515259 190.372314 309.352783 234.275269 256.838623 C 278.178101 204.32312 356.340454 197.342285 408.856079 241.24646 C 461.370239 285.149292 468.351074 363.311768 424.448242 415.825806 Z"/>
                <g id="g2">
                    <path id="path7" fill="#000034" stroke="none" d="M 397.653076 294.965698 L 397.653076 294.965698 C 403.36377 300.676392 403.36377 309.937012 397.653076 315.648926 L 320.235107 392.349731 C 315.064575 397.471924 306.726929 397.452148 301.580566 392.305664 L 256.766113 347.492676 C 251.055542 341.78064 251.055542 332.521362 256.766113 326.809326 L 256.766113 326.809326 C 262.478149 321.098755 271.73877 321.098755 277.449463 326.809326 L 311.287842 360.647827 L 376.969971 294.965698 C 382.680542 289.253662 391.94104 289.253662 397.653076 294.965698 Z"/>
                </g>
                <path id="path8" fill="none" stroke="none" d="M 397.653076 294.965698 L 397.653076 294.965698 C 403.36377 300.676392 403.36377 309.937012 397.653076 315.648926 L 320.235107 392.349731 C 315.064575 397.471924 306.726929 397.452148 301.580566 392.305664 L 256.766113 347.492676 C 251.055542 341.78064 251.055542 332.521362 256.766113 326.809326 L 256.766113 326.809326 C 262.478149 321.098755 271.73877 321.098755 277.449463 326.809326 L 311.287842 360.647827 L 376.969971 294.965698 C 382.680542 289.253662 391.94104 289.253662 397.653076 294.965698 Z"/>
            </g>
            <g id="g3">
                <text id="Snapcaster" xml:space="preserve" x="718" y="434" font-family="Helvetica" font-size="327.553326" fill="#fafafa">Snapcaster</text>
            </g>
        </g>
    </g>
</svg>
