<?xml version="1.0" encoding="UTF-8"?>
<!-- Generated by Pixelmator Pro 3.5.7 -->
<svg width="800" height="800" viewBox="0 0 800 800" xmlns="http://www.w3.org/2000/svg">
    <path id="Oval" fill="#000034" fill-rule="evenodd" stroke="none" d="M 800 400 C 800 179.086121 620.913879 0 400 0 C 179.086105 0 0 179.086121 0 400 C 0 620.913879 179.086105 800 400 800 C 620.913879 800 800 620.913879 800 400 Z"/>
    <g id="Layer-1">
        <g id="Group">
            <g id="g1">
                <linearGradient id="linearGradient1" x1="403.027941" y1="228.841354" x2="105.186583" y2="526.682713" gradientUnits="userSpaceOnUse">
                    <stop offset="1e-06" stop-color="#00fffb" stop-opacity="1"/>
                    <stop offset="1" stop-color="#f5adff" stop-opacity="1"/>
                </linearGradient>
                <path id="Path" fill="url(#linearGradient1)" stroke="none" d="M 176.454102 383.426147 L 176.454102 383.426147 C 159.828369 366.80188 159.828369 339.8479 176.454102 323.222168 L 307.626709 192.049561 C 324.252441 175.423828 351.206421 175.423828 367.830688 192.049561 L 367.830688 192.049561 C 384.455078 208.673828 384.455078 235.627686 367.830688 252.253418 L 236.656616 383.426147 C 220.032227 400.050415 193.078369 400.050415 176.454102 383.426147 Z"/>
                <linearGradient id="linearGradient2" x1="498.720535" y1="324.533894" x2="200.877535" y2="622.376895" gradientUnits="userSpaceOnUse">
                    <stop offset="1e-06" stop-color="#00fffb" stop-opacity="1"/>
                    <stop offset="1" stop-color="#f5adff" stop-opacity="1"/>
                </linearGradient>
                <path id="path1" fill="url(#linearGradient2)" stroke="none" d="M 205.008545 312.301514 L 205.008545 312.301514 C 228.520264 312.301514 247.578735 331.359985 247.578735 354.871582 L 247.578735 540.378906 C 247.578735 563.88916 228.520264 582.949097 205.008545 582.949097 L 205.008545 582.949097 C 181.496948 582.949097 162.438354 563.88916 162.438354 540.378906 L 162.438354 354.871582 C 162.438354 331.359985 181.496948 312.301514 205.008545 312.301514 Z"/>
                <linearGradient id="linearGradient3" x1="410.461287" y1="236.184562" x2="112.59106" y2="534.054789" gradientUnits="userSpaceOnUse">
                    <stop offset="1e-06" stop-color="#00fffb" stop-opacity="1"/>
                    <stop offset="1" stop-color="#f5adff" stop-opacity="1"/>
                </linearGradient>
                <path id="path2" fill="url(#linearGradient3)" stroke="none" d="M 278.964478 379.466553 L 233.031494 425.399536 L 228.826416 429.604492 L 213.271118 445.161255 L 107.844482 550.586548 C 105.006104 553.424805 105.006104 558.049561 107.844482 560.887817 L 249.743652 702.786987 L 278.964478 732.007813 C 281.802734 734.846191 286.42749 734.846191 289.265747 732.007813 L 428.37915 592.894531 L 460.385864 560.887817 C 463.224121 558.049561 463.224121 553.424805 460.385864 550.586548 L 289.265747 379.466553 C 286.42749 376.628052 281.802734 376.628052 278.964478 379.466553 Z"/>
                <linearGradient id="linearGradient4" x1="311.943143" y1="721.115577" x2="518.663668" y2="514.395051" gradientUnits="userSpaceOnUse">
                    <stop offset="1e-06" stop-color="#00fffb" stop-opacity="0"/>
                    <stop offset="1" stop-color="#000000" stop-opacity="1"/>
                </linearGradient>
                <path id="path3" fill="url(#linearGradient4)" stroke="none" d="M 315.333618 405.53418 L 233.031494 425.399536 L 213.690674 430.076538 C 213.690674 430.235352 214.269165 434.912476 215.372192 443.058716 C 220.680176 483.631348 237.603638 611.130737 249.743652 702.786987 L 278.964478 732.007813 C 281.802734 734.846191 286.42749 734.846191 289.265747 732.007813 L 428.37915 592.894531 L 460.385864 560.887817 C 463.224121 558.049561 463.224121 553.424805 460.385864 550.586548 L 315.333618 405.53418 Z"/>
                <linearGradient id="linearGradient5" x1="217.966112" y1="390.33154" x2="704.677716" y2="-96.380064" gradientUnits="userSpaceOnUse">
                    <stop offset="1e-06" stop-color="#000034" stop-opacity="1"/>
                    <stop offset="1" stop-color="#f5adff" stop-opacity="1"/>
                </linearGradient>
                <path id="path4" fill="url(#linearGradient5)" stroke="none" d="M 394.998657 621.553955 L 224.66394 451.219116 C 209.254761 435.809937 209.254761 410.828125 224.66394 395.420166 L 421.942627 198.140015 C 437.351929 182.7323 462.333862 182.7323 477.741699 198.140015 L 648.077759 368.474854 C 663.485596 383.884155 663.485596 408.865967 648.077759 424.275146 L 450.797729 621.553955 C 435.389893 636.963257 410.406494 636.963257 394.998657 621.553955 Z"/>
                <linearGradient id="linearGradient6" x1="217.96616" y1="390.331492" x2="704.676552" y2="-96.3789" gradientUnits="userSpaceOnUse">
                    <stop offset="1e-06" stop-color="#000034" stop-opacity="1"/>
                    <stop offset="1" stop-color="#f5adff" stop-opacity="1"/>
                </linearGradient>
                <path id="path5" fill="url(#linearGradient6)" stroke="none" d="M 429.628174 273.576172 L 429.628174 273.576172 C 406.675171 250.623047 406.675171 213.409058 429.628174 190.45459 L 525.005981 95.078125 C 547.959106 72.125122 585.173096 72.125122 608.126099 95.078125 L 608.126099 95.078125 C 631.079102 118.03125 631.079102 155.245361 608.126099 178.198364 L 512.749634 273.576172 C 489.796631 296.529297 452.581177 296.529297 429.628174 273.576172 Z"/>
                <linearGradient id="linearGradient7" x1="580.684435" y1="284.152497" x2="580.684435" y2="595.582767" gradientUnits="userSpaceOnUse">
                    <stop offset="1e-06" stop-color="#00fffb" stop-opacity="1"/>
                    <stop offset="1" stop-color="#f5adff" stop-opacity="1"/>
                </linearGradient>
                <path id="path6" fill="url(#linearGradient7)" stroke="none" d="M 528.448242 491.825806 C 484.543945 544.341431 406.381592 551.322388 353.867554 507.418091 C 301.353394 463.515259 294.372314 385.352783 338.275269 332.838623 C 382.178101 280.32312 460.340454 273.342285 512.856079 317.24646 C 565.370239 361.149292 572.351074 439.311768 528.448242 491.825806 Z"/>
                <g id="g2">
                    <path id="path7" fill="#000034" stroke="none" d="M 501.653076 370.965698 L 501.653076 370.965698 C 507.36377 376.676392 507.36377 385.937012 501.653076 391.648926 L 424.235107 468.349731 C 419.064575 473.471924 410.726929 473.452148 405.580566 468.305664 L 360.766113 423.492676 C 355.055542 417.78064 355.055542 408.521362 360.766113 402.809326 L 360.766113 402.809326 C 366.478149 397.098755 375.73877 397.098755 381.449463 402.809326 L 415.287842 436.647827 L 480.969971 370.965698 C 486.680542 365.253662 495.94104 365.253662 501.653076 370.965698 Z"/>
                </g>
                <path id="path8" fill="none" stroke="none" d="M 501.653076 370.965698 L 501.653076 370.965698 C 507.36377 376.676392 507.36377 385.937012 501.653076 391.648926 L 424.235107 468.349731 C 419.064575 473.471924 410.726929 473.452148 405.580566 468.305664 L 360.766113 423.492676 C 355.055542 417.78064 355.055542 408.521362 360.766113 402.809326 L 360.766113 402.809326 C 366.478149 397.098755 375.73877 397.098755 381.449463 402.809326 L 415.287842 436.647827 L 480.969971 370.965698 C 486.680542 365.253662 495.94104 365.253662 501.653076 370.965698 Z"/>
            </g>
            <g id="g3"/>
        </g>
    </g>
</svg>
