<svg version="1.2" xmlns="http://www.w3.org/2000/svg" viewBox="0 0 2165 656" width="2165" height="656">
	<title>logo-type-svg</title>
	<defs>
		<linearGradient id="g1" x2="1" gradientUnits="userSpaceOnUse" gradientTransform="matrix(-297.841,297.841,-93.696,-93.696,297.028,150.841)">
			<stop offset="0" stop-color="#00fffb"/>
			<stop offset="1" stop-color="#f5adff"/>
		</linearGradient>
		<linearGradient id="g2" x2="1" gradientUnits="userSpaceOnUse" gradientTransform="matrix(-297.843,297.843,-297.843,-297.843,392.721,246.534)">
			<stop offset="0" stop-color="#00fffb"/>
			<stop offset="1" stop-color="#f5adff"/>
		</linearGradient>
		<linearGradient id="g3" x2="1" gradientUnits="userSpaceOnUse" gradientTransform="matrix(-297.87,297.87,-297.87,-297.87,304.461,158.185)">
			<stop offset="0" stop-color="#00fffb"/>
			<stop offset="1" stop-color="#f5adff"/>
		</linearGradient>
		<linearGradient id="g4" x2="1" gradientUnits="userSpaceOnUse" gradientTransform="matrix(206.721,-206.721,215.075,215.075,205.943,643.116)">
			<stop offset="0" stop-color="#00fffb" stop-opacity="0"/>
			<stop offset="1" stop-color="#000000" stop-opacity="1"/>
		</linearGradient>
		<linearGradient id="g5" x2="1" gradientUnits="userSpaceOnUse" gradientTransform="matrix(486.712,-486.712,434.894,434.894,111.966,312.332)">
			<stop offset="0" stop-color="#000034"/>
			<stop offset="1" stop-color="#f5adff"/>
		</linearGradient>
		<linearGradient id="g6" x2="1" gradientUnits="userSpaceOnUse" gradientTransform="matrix(486.71,-486.71,226.647,226.647,111.966,312.331)">
			<stop offset="0" stop-color="#000034"/>
			<stop offset="1" stop-color="#f5adff"/>
		</linearGradient>
		<linearGradient id="g7" x2="1" gradientUnits="userSpaceOnUse" gradientTransform="matrix(0,311.43,-311.429,0,474.684,206.152)">
			<stop offset="0" stop-color="#00fffb"/>
			<stop offset="1" stop-color="#f5adff"/>
		</linearGradient>
	</defs>
	<style>
		.s0 { fill: url(#g1) } 
		.s1 { fill: url(#g2) } 
		.s2 { fill: url(#g3) } 
		.s3 { fill: url(#g4) } 
		.s4 { fill: url(#g5) } 
		.s5 { fill: url(#g6) } 
		.s6 { fill: url(#g7) } 
		.s7 { fill: #000034 } 
		.s8 { fill: none } 
		.s9 { fill: #fafafa } 
	</style>
	<g id="Layer-1">
		<g id="Group">
			<g id="g1">
				<path id="Path" class="s0" d="m70.5 305.4c-16.7-16.6-16.7-43.6 0-60.2l131.1-131.2c16.7-16.6 43.6-16.6 60.2 0 16.7 16.7 16.7 43.6 0 60.3l-131.1 131.1c-16.7 16.7-43.6 16.7-60.2 0z"/>
				<path id="path1" class="s1" d="m99 234.3c23.5 0 42.6 19.1 42.6 42.6v185.5c0 23.5-19.1 42.5-42.6 42.5-23.5 0-42.6-19-42.6-42.5v-185.5c0-23.5 19.1-42.6 42.6-42.6z"/>
				<path id="path2" class="s2" d="m173 301.5l-46 45.9-4.2 4.2-15.5 15.6-105.5 105.4c-2.8 2.8-2.8 7.4 0 10.3l141.9 141.9 29.3 29.2c2.8 2.8 7.4 2.8 10.3 0l139.1-139.1 32-32c2.8-2.9 2.8-7.5 0-10.3l-171.1-171.1c-2.9-2.9-7.5-2.9-10.3 0z"/>
				<path id="path3" class="s3" d="m209.3 327.5l-82.3 19.9-19.3 4.7c0 0.1 0.6 4.8 1.7 13 5.3 40.5 22.2 168 34.3 259.7l29.3 29.2c2.8 2.8 7.4 2.8 10.3 0l139.1-139.1 32-32c2.8-2.9 2.8-7.5 0-10.3z"/>
				<path id="path4" class="s4" d="m289 543.6l-170.3-170.4c-15.4-15.4-15.4-40.4 0-55.8l197.2-197.3c15.5-15.4 40.4-15.4 55.8 0l170.4 170.4c15.4 15.4 15.4 40.4 0 55.8l-197.3 197.3c-15.4 15.4-40.4 15.4-55.8 0z"/>
				<path id="path5" class="s5" d="m323.6 195.6c-22.9-23-22.9-60.2 0-83.1l95.4-95.4c23-23 60.2-23 83.1 0 23 22.9 23 60.1 0 83.1l-95.4 95.4c-22.9 22.9-60.1 22.9-83.1 0z"/>
				<path id="path6" class="s6" d="m422.4 413.8c-43.9 52.5-122 59.5-174.5 15.6-52.5-43.9-59.5-122-15.6-174.6 43.9-52.5 122-59.5 174.6-15.6 52.5 43.9 59.5 122.1 15.5 174.6z"/>
				<g id="g2">
					<path id="path7" class="s7" d="m395.7 293c5.7 5.7 5.7 14.9 0 20.6l-77.5 76.7c-5.1 5.2-13.5 5.2-18.6 0l-44.8-44.8c-5.7-5.7-5.7-15 0-20.7 5.7-5.7 14.9-5.7 20.6 0l33.9 33.8 65.7-65.6c5.7-5.7 14.9-5.7 20.7 0z"/>
				</g>
				<path id="path8" fill-rule="evenodd" class="s8" d="m395.7 293c5.7 5.7 5.7 14.9 0 20.6l-77.5 76.7c-5.1 5.2-13.5 5.2-18.6 0l-44.8-44.8c-5.7-5.7-5.7-15 0-20.7 5.7-5.7 14.9-5.7 20.6 0l33.9 33.8 65.7-65.6c5.7-5.7 14.9-5.7 20.7 0z"/>
			</g>
			<path id="Snapcaster" class="s9" aria-label="Snapcaster"  d="m766.9 209.7v25.7q-15-7.1-28.3-10.7-13.3-3.5-25.7-3.5-21.5 0-33.2 8.4-11.6 8.3-11.6 23.7 0 12.9 7.7 19.5 7.8 6.6 29.4 10.6l15.9 3.3q29.5 5.6 43.4 19.8 14.1 14.1 14.1 37.8 0 28.3-19 42.9-18.9 14.6-55.6 14.6-13.8 0-29.4-3.1-15.5-3.2-32.2-9.3v-27.1q16 9 31.4 13.5 15.4 4.6 30.2 4.6 22.6 0 34.9-8.9 12.2-8.8 12.2-25.3 0-14.3-8.9-22.4-8.7-8.1-28.8-12.1l-16-3.1q-29.5-5.9-42.6-18.4-13.2-12.5-13.2-34.8 0-25.8 18.1-40.7 18.3-14.9 50.2-14.9 13.7 0 27.9 2.5 14.2 2.5 29.1 7.4zm173.1 100.2v88.1h-24v-87.3q0-20.8-8.1-31.1-8-10.3-24.2-10.3-19.4 0-30.6 12.4-11.2 12.4-11.2 33.8v82.5h-24.2v-146h24.2v22.7q8.6-13.2 20.2-19.7 11.7-6.5 26.9-6.5 25.2 0 38.1 15.6 12.9 15.5 12.9 45.8zm138.1 14.7h-23.9q-29 0-40.3 6.7-11.2 6.6-11.2 22.6 0 12.8 8.4 20.4 8.4 7.4 22.9 7.4 20 0 32-14.1 12.1-14.2 12.1-37.7zm24-9.9v83.3h-24v-22.1q-8.2 13.3-20.5 19.7-12.2 6.2-30 6.2-22.4 0-35.7-12.5-13.2-12.6-13.2-33.8 0-24.6 16.5-37.1 16.5-12.5 49.2-12.5h33.7v-2.4q0-16.5-11-25.5-10.8-9.2-30.5-9.2-12.5 0-24.4 3-11.8 3-22.8 9v-22.1q13.2-5.1 25.6-7.6 12.4-2.6 24.1-2.6 31.7 0 47.3 16.4 15.7 16.5 15.7 49.8zm72.6 61.4v77.5h-24.1v-201.6h24.1v22.2q7.5-13 19-19.3 11.6-6.4 27.7-6.4 26.6 0 43.1 21.1 16.7 21.1 16.7 55.6 0 34.4-16.7 55.5-16.5 21.1-43.1 21.1-16.1 0-27.7-6.2-11.5-6.4-19-19.5zm81.6-50.9q0-26.5-11-41.5-10.8-15.1-29.8-15.1-19 0-30 15.1-10.8 15-10.8 41.5 0 26.4 10.8 41.6 11 14.9 30 14.9 19 0 29.8-14.9 11-15.2 11-41.6zm169.7-67.6v22.5q-10.1-5.6-20.4-8.4-10.2-2.9-20.6-2.9-23.4 0-36.3 14.9-12.9 14.7-12.9 41.5 0 26.7 12.9 41.6 12.9 14.7 36.3 14.7 10.4 0 20.6-2.7 10.3-2.9 20.4-8.5v22.1q-10 4.7-20.8 7.1-10.7 2.3-22.8 2.3-33 0-52.4-20.7-19.5-20.7-19.5-55.9 0-35.8 19.6-56.2 19.7-20.5 53.8-20.5 11.1 0 21.7 2.4 10.5 2.2 20.4 6.7zm132 67h-23.9q-29.1 0-40.3 6.7-11.2 6.6-11.2 22.7 0 12.8 8.4 20.3 8.4 7.4 22.9 7.4 20 0 32-14 12.1-14.2 12.1-37.7zm24-9.9v83.3h-24v-22.2q-8.2 13.3-20.5 19.7-12.2 6.3-30 6.3-22.4 0-35.7-12.5-13.2-12.7-13.2-33.8 0-24.7 16.5-37.2 16.5-12.5 49.2-12.5h33.7v-2.3q0-16.6-11-25.6-10.8-9.1-30.5-9.1-12.5 0-24.4 3-11.8 3-22.8 9v-22.2q13.2-5.1 25.6-7.5 12.4-2.6 24.1-2.6 31.7 0 47.3 16.4 15.7 16.4 15.7 49.8zm142.5-58.4v22.7q-10.2-5.3-21.2-7.9-10.9-2.6-22.6-2.6-17.9 0-26.9 5.5-8.9 5.5-8.9 16.4 0 8.4 6.4 13.2 6.4 4.7 25.7 9l8.2 1.8q25.6 5.5 36.3 15.5 10.8 9.9 10.8 27.8 0 20.3-16.2 32.2-16 11.9-44.2 11.9-11.7 0-24.5-2.2-12.6-2.4-26.7-7v-24.7q13.3 6.9 26.2 10.4 12.9 3.4 25.5 3.4 17 0 26.1-5.7 9.1-5.9 9.1-16.5 0-9.7-6.6-15-6.5-5.2-28.8-10l-8.4-2q-22.3-4.6-32.2-14.3-9.9-9.8-9.9-26.7 0-20.6 14.6-31.8 14.6-11.2 41.5-11.2 13.3 0 25 1.9 11.8 2 21.7 5.9zm45.6-45.8h24.1v41.5h49.4v18.6h-49.4v79.3q0 17.8 4.8 22.9 5 5.1 20 5.1h24.6v20.1h-24.6q-27.8 0-38.3-10.3-10.6-10.4-10.6-37.8v-79.3h-17.6v-18.6h17.6zm230 108.4v11.8h-110.3q1.5 24.7 14.8 37.8 13.5 12.9 37.3 12.9 13.8 0 26.7-3.4 13.1-3.4 25.9-10.2v22.7q-12.9 5.5-26.5 8.4-13.6 2.8-27.5 2.8-35 0-55.4-20.3-20.4-20.3-20.4-55 0-35.9 19.3-56.9 19.5-21.1 52.3-21.1 29.5 0 46.6 19 17.2 19 17.2 51.5zm-109.5-6.9l85.5-0.1q-0.3-19.7-11.1-31.4-10.7-11.7-28.4-11.7-20.1 0-32.2 11.3-12 11.3-13.8 31.9zm233.3-62.3l0.1 24.7q-4-2.4-8.8-3.4-4.7-1.2-10.4-1.2-20.4 0-31.3 13.3-10.9 13.2-10.9 37.9v76.9h-24.1v-146h24.1v22.7q7.6-13.3 19.7-19.7 12.2-6.5 29.5-6.5 2.5 0 5.5 0.4 3 0.3 6.6 0.9z"/>
		</g>
	</g>
</svg>