<?xml version="1.0" encoding="UTF-8"?>
<!-- Generated by Pixelmator Pro 3.5.7 -->
<svg width="2184" height="660" viewBox="0 0 2184 660" xmlns="http://www.w3.org/2000/svg">
    <g id="Layer-1">
        <g id="Group">
            <g id="g1">
                <linearGradient id="linearGradient1" x1="299.027941" y1="152.841354" x2="1.186583" y2="450.682713" gradientUnits="userSpaceOnUse">
                    <stop offset="1e-06" stop-color="#00fffb" stop-opacity="1"/>
                    <stop offset="1" stop-color="#f5adff" stop-opacity="1"/>
                </linearGradient>
                <path id="Path" fill="url(#linearGradient1)" stroke="none" d="M 72.454102 307.426147 L 72.454102 307.426147 C 55.828369 290.80188 55.828369 263.8479 72.454102 247.222168 L 203.626709 116.049561 C 220.252441 99.423828 247.206421 99.423828 263.830688 116.049561 L 263.830688 116.049561 C 280.455078 132.673828 280.455078 159.627686 263.830688 176.253418 L 132.656616 307.426147 C 116.032227 324.050415 89.078369 324.050415 72.454102 307.426147 Z"/>
                <linearGradient id="linearGradient2" x1="394.720535" y1="248.533894" x2="96.877535" y2="546.376895" gradientUnits="userSpaceOnUse">
                    <stop offset="1e-06" stop-color="#00fffb" stop-opacity="1"/>
                    <stop offset="1" stop-color="#f5adff" stop-opacity="1"/>
                </linearGradient>
                <path id="path1" fill="url(#linearGradient2)" stroke="none" d="M 101.008545 236.301514 L 101.008545 236.301514 C 124.520264 236.301514 143.578735 255.359985 143.578735 278.871582 L 143.578735 464.378906 C 143.578735 487.88916 124.520264 506.949097 101.008545 506.949097 L 101.008545 506.949097 C 77.496948 506.949097 58.438354 487.88916 58.438354 464.378906 L 58.438354 278.871582 C 58.438354 255.359985 77.496948 236.301514 101.008545 236.301514 Z"/>
                <linearGradient id="linearGradient3" x1="306.461287" y1="160.184562" x2="8.59106" y2="458.054789" gradientUnits="userSpaceOnUse">
                    <stop offset="1e-06" stop-color="#00fffb" stop-opacity="1"/>
                    <stop offset="1" stop-color="#f5adff" stop-opacity="1"/>
                </linearGradient>
                <path id="path2" fill="url(#linearGradient3)" stroke="none" d="M 174.964478 303.466553 L 129.031494 349.399536 L 124.826416 353.604492 L 109.271118 369.161255 L 3.844482 474.586548 C 1.006104 477.424805 1.006104 482.049561 3.844482 484.887817 L 145.743652 626.786987 L 174.964478 656.007813 C 177.802734 658.846191 182.42749 658.846191 185.265747 656.007813 L 324.37915 516.894531 L 356.385864 484.887817 C 359.224121 482.049561 359.224121 477.424805 356.385864 474.586548 L 185.265747 303.466553 C 182.42749 300.628052 177.802734 300.628052 174.964478 303.466553 Z"/>
                <linearGradient id="linearGradient4" x1="207.943143" y1="645.115577" x2="414.663668" y2="438.395051" gradientUnits="userSpaceOnUse">
                    <stop offset="1e-06" stop-color="#00fffb" stop-opacity="0"/>
                    <stop offset="1" stop-color="#000000" stop-opacity="1"/>
                </linearGradient>
                <path id="path3" fill="url(#linearGradient4)" stroke="none" d="M 211.333618 329.53418 L 129.031494 349.399536 L 109.690674 354.076538 C 109.690674 354.235352 110.269165 358.912476 111.372192 367.058716 C 116.680176 407.631348 133.603638 535.130737 145.743652 626.786987 L 174.964478 656.007813 C 177.802734 658.846191 182.42749 658.846191 185.265747 656.007813 L 324.37915 516.894531 L 356.385864 484.887817 C 359.224121 482.049561 359.224121 477.424805 356.385864 474.586548 L 211.333618 329.53418 Z"/>
                <linearGradient id="linearGradient5" x1="113.966112" y1="314.33154" x2="600.677716" y2="-172.380064" gradientUnits="userSpaceOnUse">
                    <stop offset="1e-06" stop-color="#000034" stop-opacity="1"/>
                    <stop offset="1" stop-color="#f5adff" stop-opacity="1"/>
                </linearGradient>
                <path id="path4" fill="url(#linearGradient5)" stroke="none" d="M 290.998657 545.553955 L 120.66394 375.219116 C 105.254761 359.809937 105.254761 334.828125 120.66394 319.420166 L 317.942627 122.140015 C 333.351929 106.7323 358.333862 106.7323 373.741699 122.140015 L 544.077759 292.474854 C 559.485596 307.884155 559.485596 332.865967 544.077759 348.275146 L 346.797729 545.553955 C 331.389893 560.963257 306.406494 560.963257 290.998657 545.553955 Z"/>
                <linearGradient id="linearGradient6" x1="113.96616" y1="314.331492" x2="600.676552" y2="-172.3789" gradientUnits="userSpaceOnUse">
                    <stop offset="1e-06" stop-color="#000034" stop-opacity="1"/>
                    <stop offset="1" stop-color="#f5adff" stop-opacity="1"/>
                </linearGradient>
                <path id="path5" fill="url(#linearGradient6)" stroke="none" d="M 325.628174 197.576172 L 325.628174 197.576172 C 302.675171 174.623047 302.675171 137.409058 325.628174 114.45459 L 421.005981 19.078125 C 443.959106 -3.874878 481.173096 -3.874878 504.126099 19.078125 L 504.126099 19.078125 C 527.079102 42.03125 527.079102 79.245361 504.126099 102.198364 L 408.749634 197.576172 C 385.796631 220.529297 348.581177 220.529297 325.628174 197.576172 Z"/>
                <linearGradient id="linearGradient7" x1="476.684435" y1="208.152497" x2="476.684435" y2="519.582767" gradientUnits="userSpaceOnUse">
                    <stop offset="1e-06" stop-color="#00fffb" stop-opacity="1"/>
                    <stop offset="1" stop-color="#f5adff" stop-opacity="1"/>
                </linearGradient>
                <path id="path6" fill="url(#linearGradient7)" stroke="none" d="M 424.448242 415.825806 C 380.543945 468.341431 302.381592 475.322388 249.867554 431.418091 C 197.353394 387.515259 190.372314 309.352783 234.275269 256.838623 C 278.178101 204.32312 356.340454 197.342285 408.856079 241.24646 C 461.370239 285.149292 468.351074 363.311768 424.448242 415.825806 Z"/>
                <g id="g2">
                    <path id="path7" fill="#000034" stroke="none" d="M 397.653076 294.965698 L 397.653076 294.965698 C 403.36377 300.676392 403.36377 309.937012 397.653076 315.648926 L 320.235107 392.349731 C 315.064575 397.471924 306.726929 397.452148 301.580566 392.305664 L 256.766113 347.492676 C 251.055542 341.78064 251.055542 332.521362 256.766113 326.809326 L 256.766113 326.809326 C 262.478149 321.098755 271.73877 321.098755 277.449463 326.809326 L 311.287842 360.647827 L 376.969971 294.965698 C 382.680542 289.253662 391.94104 289.253662 397.653076 294.965698 Z"/>
                </g>
                <path id="path8" fill="none" stroke="none" d="M 397.653076 294.965698 L 397.653076 294.965698 C 403.36377 300.676392 403.36377 309.937012 397.653076 315.648926 L 320.235107 392.349731 C 315.064575 397.471924 306.726929 397.452148 301.580566 392.305664 L 256.766113 347.492676 C 251.055542 341.78064 251.055542 332.521362 256.766113 326.809326 L 256.766113 326.809326 C 262.478149 321.098755 271.73877 321.098755 277.449463 326.809326 L 311.287842 360.647827 L 376.969971 294.965698 C 382.680542 289.253662 391.94104 289.253662 397.653076 294.965698 Z"/>
            </g>
            <g id="g3">
                <text id="Snapcaster" xml:space="preserve" x="614" y="360" font-family="Helvetica" font-size="267.139167" fill="#ffffff">Snapcaster</text>
            </g>
            <text id="text1" xml:space="preserve" x="614" y="360" font-family="Helvetica" font-size="267.139167" fill="#ffffff">Snapcaster</text>
            <linearGradient id="linearGradient8" x1="685.109273" y1="434.853366" x2="685.109273" y2="564.309441" gradientUnits="userSpaceOnUse">
                <stop offset="1e-06" stop-color="#00fffb" stop-opacity="1"/>
                <stop offset="1" stop-color="#f5adff" stop-opacity="1"/>
            </linearGradient>
            <path id="path9" fill="url(#linearGradient8)" stroke="none" d="M 655.270386 468.588135 C 666.922729 469.725098 673.838379 475.977417 673.838379 486.019043 C 673.838379 493.219849 669.765259 499.093506 662.281006 501.366089 C 672.134277 503.261475 676.776001 508.945313 676.776001 518.418579 C 676.776001 530.640747 667.681274 536.134521 657.354492 537.176514 C 654.418335 537.461548 651.954224 537.461548 648.733276 537.461548 L 624.481567 537.461548 L 624.481567 468.303101 L 646.744141 468.303101 C 649.870361 468.303101 651.860718 468.303101 655.270386 468.588135 Z M 647.976196 497.387939 C 654.891846 497.387939 661.712524 495.587402 661.712524 488.19812 C 661.712524 481.377441 656.786011 478.724854 648.354736 478.724854 L 636.22876 478.724854 L 636.22876 497.387939 L 647.976196 497.387939 Z M 650.723755 527.039795 C 658.776489 527.039795 664.743652 524.198608 664.743652 517.566528 C 664.743652 510.177368 658.870117 507.808228 649.208252 507.808228 L 636.22876 507.808228 L 636.22876 527.039795 L 650.723755 527.039795 Z"/>
            <linearGradient id="linearGradient9" x1="735.376331" y1="434.853412" x2="735.376331" y2="564.308146" gradientUnits="userSpaceOnUse">
                <stop offset="1e-06" stop-color="#00fffb" stop-opacity="1"/>
                <stop offset="1" stop-color="#f5adff" stop-opacity="1"/>
            </linearGradient>
            <path id="path10" fill="url(#linearGradient9)" stroke="none" d="M 726.759521 501.366089 C 726.947998 503.925049 727.042969 506.104126 727.042969 508.945313 L 727.042969 537.461548 L 716.621216 537.461548 L 716.054199 531.114258 C 713.306519 537.650024 706.86438 538.786987 699.758789 538.786987 C 691.042603 538.786987 683.748413 533.576904 683.748413 524.008667 C 683.748413 511.12439 693.69519 506.766235 713.306519 506.766235 L 715.579224 506.766235 L 715.579224 505.25061 C 715.579224 499.850586 713.968628 496.250854 706.200928 496.250854 C 699.568848 496.250854 696.537598 498.429932 695.874146 503.640015 L 685.453979 503.640015 C 685.832397 493.219849 691.801025 486.397583 706.674438 486.397583 C 720.600952 486.397583 726.095947 492.651367 726.759521 501.366089 Z M 703.453369 528.935303 C 709.51709 528.935303 715.579224 525.619263 715.579224 520.218994 L 715.579224 515.860962 C 703.169922 515.387451 695.305664 516.334473 695.305664 522.588013 C 695.305664 526.661255 698.526733 528.935303 703.453369 528.935303 Z"/>
            <linearGradient id="linearGradient10" x1="786.306888" y1="434.853412" x2="786.306888" y2="564.308146" gradientUnits="userSpaceOnUse">
                <stop offset="1e-06" stop-color="#00fffb" stop-opacity="1"/>
                <stop offset="1" stop-color="#f5adff" stop-opacity="1"/>
            </linearGradient>
            <path id="path11" fill="url(#linearGradient10)" stroke="none" d="M 776.646606 502.314575 L 765.279175 502.314575 C 764.52063 497.197876 760.921143 496.060913 755.994385 496.060913 C 751.541382 496.060913 748.036743 497.671509 748.036743 500.797607 C 748.036743 504.208618 750.9729 506.104126 759.025635 507.334717 C 772.099976 509.418823 777.973511 513.966797 777.973511 523.535156 C 777.973511 533.576904 768.973755 538.786987 757.320068 538.786987 C 743.58374 538.786987 736.384399 533.955444 735.057495 522.588013 L 746.42627 522.588013 C 747.46814 527.513306 750.689331 529.123779 757.60498 529.123779 C 763.10022 529.123779 766.414795 527.4198 766.414795 524.387207 C 766.414795 520.692505 762.910156 518.51355 754.66748 517.187988 C 742.163086 515.103882 736.479492 511.314331 736.479492 501.366089 C 736.479492 492.556274 744.342163 486.397583 756.277954 486.397583 C 769.825928 486.397583 775.984497 491.609253 776.646606 502.314575 Z"/>
            <linearGradient id="linearGradient11" x1="839.614979" y1="434.853412" x2="839.614979" y2="564.308146" gradientUnits="userSpaceOnUse">
                <stop offset="1e-06" stop-color="#00fffb" stop-opacity="1"/>
                <stop offset="1" stop-color="#f5adff" stop-opacity="1"/>
            </linearGradient>
            <path id="path12" fill="url(#linearGradient11)" stroke="none" d="M 831.281738 511.78772 C 831.281738 513.113403 831.186768 514.91394 831.091797 516.429443 L 796.418213 516.429443 C 797.271729 525.619263 801.344727 528.935303 808.543945 528.935303 C 814.324219 528.935303 817.733887 526.756226 819.060791 522.681641 L 830.428223 522.681641 C 828.53418 532.913452 820.671387 538.786987 808.165527 538.786987 C 792.533569 538.786987 784.4823 529.882202 784.4823 512.829834 C 784.4823 496.345825 792.155029 486.397583 808.543945 486.397583 C 824.649658 486.397583 831.281738 497.197876 831.281738 511.78772 Z M 819.439209 507.429688 C 818.587158 499.376953 814.417725 496.250854 808.070557 496.250854 C 801.344727 496.250854 797.365356 499.093506 796.513184 507.429688 L 819.439209 507.429688 Z"/>
            <linearGradient id="linearGradient12" x1="896.514181" y1="434.853698" x2="896.514181" y2="564.307949" gradientUnits="userSpaceOnUse">
                <stop offset="1e-06" stop-color="#00fffb" stop-opacity="1"/>
                <stop offset="1" stop-color="#f5adff" stop-opacity="1"/>
            </linearGradient>
            <path id="path13" fill="url(#linearGradient12)" stroke="none" d="M 888.180908 537.461548 L 877.664063 537.461548 L 877.000732 529.408691 C 874.633057 536.988037 868.000977 538.786987 860.423096 538.786987 C 845.359619 538.786987 838.727539 528.555298 838.727539 512.734863 C 838.727539 495.682373 846.875244 486.397583 861.180176 486.397583 C 867.622314 486.397583 873.781006 487.914551 876.717041 493.78833 L 876.717041 468.303101 L 888.180908 468.303101 L 888.180908 537.461548 Z M 864.022705 528.935303 C 871.316895 528.935303 876.717041 524.860718 876.717041 512.924805 L 876.717041 511.409302 C 876.717041 499.661987 870.369873 496.250854 864.306152 496.250854 C 855.496582 496.250854 851.233398 502.408081 851.233398 512.829834 C 851.233398 522.114502 854.927979 528.935303 864.022705 528.935303 Z"/>
            <linearGradient id="linearGradient13" x1="977.276626" y1="434.853412" x2="977.276626" y2="564.308146" gradientUnits="userSpaceOnUse">
                <stop offset="1e-06" stop-color="#00fffb" stop-opacity="1"/>
                <stop offset="1" stop-color="#f5adff" stop-opacity="1"/>
            </linearGradient>
            <path id="path14" fill="url(#linearGradient13)" stroke="none" d="M 944.02832 486.397583 C 960.038574 486.397583 968.943359 495.208862 968.943359 512.5448 C 968.943359 529.977295 959.943604 538.786987 944.02832 538.786987 C 928.016113 538.786987 919.111328 529.977295 919.111328 512.5448 C 919.111328 495.208862 928.016113 486.397583 944.02832 486.397583 Z M 944.02832 528.935303 C 952.174316 528.935303 956.910889 524.577148 956.910889 512.5448 C 956.910889 500.703979 952.174316 496.250854 944.02832 496.250854 C 935.880371 496.250854 931.048828 500.703979 931.048828 512.5448 C 931.048828 524.577148 935.880371 528.935303 944.02832 528.935303 Z"/>
            <linearGradient id="linearGradient14" x1="1031.616825" y1="434.852823" x2="1031.616825" y2="564.309827" gradientUnits="userSpaceOnUse">
                <stop offset="1e-06" stop-color="#00fffb" stop-opacity="1"/>
                <stop offset="1" stop-color="#f5adff" stop-opacity="1"/>
            </linearGradient>
            <path id="path15" fill="url(#linearGradient14)" stroke="none" d="M 1022.905029 499.755615 C 1023.188477 502.314575 1023.283447 504.587158 1023.283447 508.661743 L 1023.283447 537.461548 L 1011.821289 537.461548 L 1011.821289 508.661743 C 1011.821289 501.272583 1010.020752 496.440796 1001.494385 496.440796 C 994.768799 496.155884 989.937012 500.797607 989.937012 511.12439 L 989.937012 537.461548 L 978.473145 537.461548 L 978.473145 487.724609 L 988.98999 487.724609 L 989.463623 495.682373 C 990.884033 488.483154 997.04126 486.397583 1005.283936 486.397583 C 1015.61084 486.397583 1021.673096 490.47229 1022.905029 499.755615 Z"/>
            <linearGradient id="linearGradient15" x1="1064.169338" y1="434.854369" x2="1064.169338" y2="564.309839" gradientUnits="userSpaceOnUse">
                <stop offset="1e-06" stop-color="#00fffb" stop-opacity="1"/>
                <stop offset="1" stop-color="#f5adff" stop-opacity="1"/>
            </linearGradient>
            <path id="path16" fill="url(#linearGradient15)" stroke="none" d="M 1055.835938 514.630371 L 1031.677734 514.630371 L 1031.677734 505.535645 L 1055.835938 505.535645 L 1055.835938 514.630371 Z"/>
            <linearGradient id="linearGradient16" x1="1117.392365" y1="434.853412" x2="1117.392365" y2="564.308146" gradientUnits="userSpaceOnUse">
                <stop offset="1e-06" stop-color="#00fffb" stop-opacity="1"/>
                <stop offset="1" stop-color="#f5adff" stop-opacity="1"/>
            </linearGradient>
            <path id="path17" fill="url(#linearGradient16)" stroke="none" d="M 1109.059082 504.587158 L 1097.69043 504.587158 C 1097.216797 499.187012 1093.237061 496.250854 1087.079834 496.250854 C 1079.500732 496.250854 1075.047607 501.17749 1075.047607 512.451294 C 1075.047607 523.630127 1079.027344 528.935303 1086.985107 528.935303 C 1092.668701 528.935303 1096.931641 525.52417 1097.69043 520.597534 L 1109.059082 520.597534 C 1107.732178 531.587769 1100.342773 538.786987 1086.41626 538.786987 C 1070.406006 538.786987 1063.111816 529.123779 1063.111816 512.639771 C 1063.111816 496.060913 1070.595947 486.397583 1087.268555 486.397583 C 1102.236816 486.397583 1108.205566 493.78833 1109.059082 504.587158 Z"/>
            <linearGradient id="linearGradient17" x1="1170.405568" y1="434.853366" x2="1170.405568" y2="564.309441" gradientUnits="userSpaceOnUse">
                <stop offset="1e-06" stop-color="#00fffb" stop-opacity="1"/>
                <stop offset="1" stop-color="#f5adff" stop-opacity="1"/>
            </linearGradient>
            <path id="path18" fill="url(#linearGradient17)" stroke="none" d="M 1128.725586 495.018799 C 1130.336182 488.293213 1136.11499 486.397583 1144.072754 486.397583 C 1154.399414 486.397583 1160.46167 490.47229 1161.693848 499.755615 C 1161.97876 502.314575 1162.072266 504.587158 1162.072266 508.661743 L 1162.072266 537.461548 L 1150.609863 537.461548 L 1150.609863 508.661743 C 1150.609863 501.272583 1148.809326 496.440796 1140.283203 496.440796 C 1133.557373 496.155884 1128.725586 500.797607 1128.725586 511.12439 L 1128.725586 537.461548 L 1117.261963 537.461548 L 1117.261963 468.303101 L 1128.725586 468.303101 L 1128.725586 495.018799 Z"/>
            <linearGradient id="linearGradient18" x1="1221.716076" y1="434.853412" x2="1221.716076" y2="564.308146" gradientUnits="userSpaceOnUse">
                <stop offset="1e-06" stop-color="#00fffb" stop-opacity="1"/>
                <stop offset="1" stop-color="#f5adff" stop-opacity="1"/>
            </linearGradient>
            <path id="path19" fill="url(#linearGradient18)" stroke="none" d="M 1213.0979 501.366089 C 1213.287842 503.925049 1213.382813 506.104126 1213.382813 508.945313 L 1213.382813 537.461548 L 1202.960938 537.461548 L 1202.392578 531.114258 C 1199.64502 537.650024 1193.202637 538.786987 1186.098389 538.786987 C 1177.382324 538.786987 1170.088135 533.576904 1170.088135 524.008667 C 1170.088135 511.12439 1180.034912 506.766235 1199.64502 506.766235 L 1201.918945 506.766235 L 1201.918945 505.25061 C 1201.918945 499.850586 1200.308594 496.250854 1192.540771 496.250854 C 1185.908447 496.250854 1182.877441 498.429932 1182.213867 503.640015 L 1171.791992 503.640015 C 1172.172119 493.219849 1178.140869 486.397583 1193.01416 486.397583 C 1206.94043 486.397583 1212.434326 492.651367 1213.0979 501.366089 Z M 1189.793213 528.935303 C 1195.855469 528.935303 1201.918945 525.619263 1201.918945 520.218994 L 1201.918945 515.860962 C 1189.508057 515.387451 1181.645508 516.334473 1181.645508 522.588013 C 1181.645508 526.661255 1184.866699 528.935303 1189.793213 528.935303 Z"/>
            <linearGradient id="linearGradient19" x1="1245.087366" y1="434.854942" x2="1245.087366" y2="564.309238" gradientUnits="userSpaceOnUse">
                <stop offset="1e-06" stop-color="#00fffb" stop-opacity="1"/>
                <stop offset="1" stop-color="#f5adff" stop-opacity="1"/>
            </linearGradient>
            <path id="path20" fill="url(#linearGradient19)" stroke="none" d="M 1230.217041 466.03064 C 1233.816406 466.03064 1236.75415 468.966675 1236.75415 472.566284 C 1236.75415 476.167358 1233.816406 479.008423 1230.217041 479.008423 C 1226.617188 479.008423 1223.774658 476.167358 1223.774658 472.566284 C 1223.774658 468.966675 1226.617188 466.03064 1230.217041 466.03064 Z M 1235.995605 537.461548 L 1224.533203 537.461548 L 1224.533203 487.724609 L 1235.995605 487.724609 L 1235.995605 537.461548 Z"/>
            <linearGradient id="linearGradient20" x1="1300.962967" y1="434.852823" x2="1300.962967" y2="564.309827" gradientUnits="userSpaceOnUse">
                <stop offset="1e-06" stop-color="#00fffb" stop-opacity="1"/>
                <stop offset="1" stop-color="#f5adff" stop-opacity="1"/>
            </linearGradient>
            <path id="path21" fill="url(#linearGradient20)" stroke="none" d="M 1292.249756 499.755615 C 1292.534668 502.314575 1292.629639 504.587158 1292.629639 508.661743 L 1292.629639 537.461548 L 1281.165771 537.461548 L 1281.165771 508.661743 C 1281.165771 501.272583 1279.366699 496.440796 1270.840332 496.440796 C 1264.113281 496.155884 1259.281738 500.797607 1259.281738 511.12439 L 1259.281738 537.461548 L 1247.81958 537.461548 L 1247.81958 487.724609 L 1258.334717 487.724609 L 1258.808105 495.682373 C 1260.22876 488.483154 1266.387451 486.397583 1274.628662 486.397583 C 1284.955322 486.397583 1291.019287 490.47229 1292.249756 499.755615 Z"/>
            <linearGradient id="linearGradient21" x1="1381.25189" y1="434.853918" x2="1381.25189" y2="564.308932" gradientUnits="userSpaceOnUse">
                <stop offset="1e-06" stop-color="#00fffb" stop-opacity="1"/>
                <stop offset="1" stop-color="#f5adff" stop-opacity="1"/>
            </linearGradient>
            <path id="path22" fill="url(#linearGradient21)" stroke="none" d="M 1352.64502 537.461548 L 1339.760498 537.461548 L 1319.39209 487.724609 L 1332.371582 487.724609 L 1346.581299 527.039795 L 1360.697754 487.724609 L 1372.918457 487.724609 L 1352.64502 537.461548 Z"/>
            <linearGradient id="linearGradient22" x1="1432.939515" y1="434.853412" x2="1432.939515" y2="564.308146" gradientUnits="userSpaceOnUse">
                <stop offset="1e-06" stop-color="#00fffb" stop-opacity="1"/>
                <stop offset="1" stop-color="#f5adff" stop-opacity="1"/>
            </linearGradient>
            <path id="path23" fill="url(#linearGradient22)" stroke="none" d="M 1399.690918 486.397583 C 1415.701172 486.397583 1424.605957 495.208862 1424.605957 512.5448 C 1424.605957 529.977295 1415.606445 538.786987 1399.690918 538.786987 C 1383.68042 538.786987 1374.775635 529.977295 1374.775635 512.5448 C 1374.775635 495.208862 1383.68042 486.397583 1399.690918 486.397583 Z M 1399.690918 528.935303 C 1407.838623 528.935303 1412.575195 524.577148 1412.575195 512.5448 C 1412.575195 500.703979 1407.838623 496.250854 1399.690918 496.250854 C 1391.543213 496.250854 1386.71167 500.703979 1386.71167 512.5448 C 1386.71167 524.577148 1391.543213 528.935303 1399.690918 528.935303 Z"/>
            <linearGradient id="linearGradient23" x1="1467.954627" y1="434.853433" x2="1467.954627" y2="564.309003" gradientUnits="userSpaceOnUse">
                <stop offset="1e-06" stop-color="#00fffb" stop-opacity="1"/>
                <stop offset="1" stop-color="#f5adff" stop-opacity="1"/>
            </linearGradient>
            <path id="path24" fill="url(#linearGradient23)" stroke="none" d="M 1459.242676 528.555298 L 1459.242676 537.934937 C 1456.400391 538.313477 1453.9375 538.503418 1450.053223 538.503418 C 1440.768555 538.503418 1437.64209 534.713989 1437.168701 528.650269 C 1436.97876 525.997803 1436.97876 524.008667 1436.97876 521.166016 L 1436.97876 497.387939 L 1429.968018 497.387939 L 1429.968018 487.914551 L 1436.97876 487.914551 L 1436.97876 473.134766 L 1448.442627 473.134766 L 1448.442627 487.914551 L 1459.621094 487.914551 L 1459.621094 497.387939 L 1448.442627 497.387939 L 1448.442627 520.882446 C 1448.442627 528.555298 1450.053223 529.123779 1459.242676 528.555298 Z"/>
            <linearGradient id="linearGradient24" x1="1488.398303" y1="434.854942" x2="1488.398303" y2="564.309238" gradientUnits="userSpaceOnUse">
                <stop offset="1e-06" stop-color="#00fffb" stop-opacity="1"/>
                <stop offset="1" stop-color="#f5adff" stop-opacity="1"/>
            </linearGradient>
            <path id="path25" fill="url(#linearGradient24)" stroke="none" d="M 1473.529297 466.03064 C 1477.128906 466.03064 1480.064941 468.966675 1480.064941 472.566284 C 1480.064941 476.167358 1477.128906 479.008423 1473.529297 479.008423 C 1469.928223 479.008423 1467.087158 476.167358 1467.087158 472.566284 C 1467.087158 468.966675 1469.928223 466.03064 1473.529297 466.03064 Z M 1479.307861 537.461548 L 1467.844238 537.461548 L 1467.844238 487.724609 L 1479.307861 487.724609 L 1479.307861 537.461548 Z"/>
            <linearGradient id="linearGradient25" x1="1544.273904" y1="434.852823" x2="1544.273904" y2="564.309827" gradientUnits="userSpaceOnUse">
                <stop offset="1e-06" stop-color="#00fffb" stop-opacity="1"/>
                <stop offset="1" stop-color="#f5adff" stop-opacity="1"/>
            </linearGradient>
            <path id="path26" fill="url(#linearGradient25)" stroke="none" d="M 1535.562012 499.755615 C 1535.845703 502.314575 1535.94043 504.587158 1535.94043 508.661743 L 1535.94043 537.461548 L 1524.478027 537.461548 L 1524.478027 508.661743 C 1524.478027 501.272583 1522.677734 496.440796 1514.151611 496.440796 C 1507.425781 496.155884 1502.594238 500.797607 1502.594238 511.12439 L 1502.594238 537.461548 L 1491.130371 537.461548 L 1491.130371 487.724609 L 1501.645752 487.724609 L 1502.120605 495.682373 C 1503.541016 488.483154 1509.698486 486.397583 1517.940918 486.397583 C 1528.267822 486.397583 1534.330078 490.47229 1535.562012 499.755615 Z"/>
            <linearGradient id="linearGradient26" x1="1601.931592" y1="434.852731" x2="1601.931592" y2="564.309694" gradientUnits="userSpaceOnUse">
                <stop offset="1e-06" stop-color="#00fffb" stop-opacity="1"/>
                <stop offset="1" stop-color="#f5adff" stop-opacity="1"/>
            </linearGradient>
            <path id="path27" fill="url(#linearGradient26)" stroke="none" d="M 1593.503418 535.755981 C 1593.029785 549.777344 1584.596924 556.787964 1569.345215 556.787964 C 1556.650879 556.787964 1546.702637 553.471924 1546.040527 539.166992 L 1557.407959 539.166992 C 1558.35498 545.229248 1562.524414 546.934692 1569.345215 546.934692 C 1578.439941 546.934692 1582.134521 542.103149 1582.134521 535.1875 L 1582.134521 526.851196 C 1580.807617 534.050415 1575.882324 536.419556 1566.787354 536.419556 C 1551.724121 536.419556 1545.092041 526.471313 1545.092041 511.502808 C 1545.092041 495.303833 1553.239746 486.397583 1567.449707 486.397583 C 1575.882324 486.397583 1580.807617 488.293213 1582.702881 494.450317 L 1582.986328 487.724609 L 1593.598145 487.724609 L 1593.598145 523.913696 C 1593.598145 529.408691 1593.598145 532.819824 1593.503418 535.755981 Z M 1569.345215 526.566284 C 1576.734375 526.566284 1582.134521 522.588013 1582.134521 511.977905 L 1582.134521 509.987305 C 1582.134521 499.661987 1575.787354 496.250854 1569.723877 496.250854 C 1561.576172 496.250854 1557.502686 502.219604 1557.502686 511.502808 C 1557.502686 519.935547 1560.913818 526.566284 1569.345215 526.566284 Z"/>
            <linearGradient id="linearGradient27" x1="1659.482951" y1="434.854486" x2="1659.482951" y2="564.308736" gradientUnits="userSpaceOnUse">
                <stop offset="1e-06" stop-color="#00fffb" stop-opacity="1"/>
                <stop offset="1" stop-color="#f5adff" stop-opacity="1"/>
            </linearGradient>
            <path id="path28" fill="url(#linearGradient27)" stroke="none" d="M 1651.149414 467.451172 L 1651.149414 477.019287 C 1642.244873 475.787476 1639.970947 478.439941 1639.970947 484.030151 L 1639.970947 487.914551 L 1650.202637 487.914551 L 1650.202637 497.387939 L 1639.970947 497.387939 L 1639.970947 537.461548 L 1628.508545 537.461548 L 1628.508545 497.387939 L 1622.823242 497.387939 L 1622.823242 487.914551 L 1628.508545 487.914551 L 1628.508545 484.693604 C 1628.508545 483.176636 1628.508545 482.041016 1628.602051 480.240479 C 1629.17041 472.377686 1633.718506 466.977661 1644.70752 466.977661 C 1647.171631 466.977661 1649.065674 467.072632 1651.149414 467.451172 Z"/>
            <linearGradient id="linearGradient28" x1="1712.61099" y1="434.853412" x2="1712.61099" y2="564.308146" gradientUnits="userSpaceOnUse">
                <stop offset="1e-06" stop-color="#00fffb" stop-opacity="1"/>
                <stop offset="1" stop-color="#f5adff" stop-opacity="1"/>
            </linearGradient>
            <path id="path29" fill="url(#linearGradient28)" stroke="none" d="M 1679.362549 486.397583 C 1695.372803 486.397583 1704.277588 495.208862 1704.277588 512.5448 C 1704.277588 529.977295 1695.277832 538.786987 1679.362549 538.786987 C 1663.352051 538.786987 1654.447266 529.977295 1654.447266 512.5448 C 1654.447266 495.208862 1663.352051 486.397583 1679.362549 486.397583 Z M 1679.362549 528.935303 C 1687.510254 528.935303 1692.246826 524.577148 1692.246826 512.5448 C 1692.246826 500.703979 1687.510254 496.250854 1679.362549 496.250854 C 1671.214844 496.250854 1666.383057 500.703979 1666.383057 512.5448 C 1666.383057 524.577148 1671.214844 528.935303 1679.362549 528.935303 Z"/>
            <linearGradient id="linearGradient29" x1="1749.710166" y1="434.852823" x2="1749.710166" y2="564.309827" gradientUnits="userSpaceOnUse">
                <stop offset="1e-06" stop-color="#00fffb" stop-opacity="1"/>
                <stop offset="1" stop-color="#f5adff" stop-opacity="1"/>
            </linearGradient>
            <path id="path30" fill="url(#linearGradient29)" stroke="none" d="M 1741.376709 486.682617 L 1741.376709 496.250854 C 1729.81958 495.113892 1724.229492 500.892578 1724.229492 515.765991 L 1724.229492 537.461548 L 1712.76709 537.461548 L 1712.76709 487.724609 L 1723.282471 487.724609 L 1723.755859 496.819336 C 1724.609375 489.713745 1730.197998 486.397583 1737.587158 486.397583 C 1739.197754 486.397583 1740.334717 486.397583 1741.376709 486.682617 Z"/>
            <linearGradient id="linearGradient30" x1="1827.261451" y1="434.853366" x2="1827.261451" y2="564.309441" gradientUnits="userSpaceOnUse">
                <stop offset="1e-06" stop-color="#00fffb" stop-opacity="1"/>
                <stop offset="1" stop-color="#f5adff" stop-opacity="1"/>
            </linearGradient>
            <path id="path31" fill="url(#linearGradient30)" stroke="none" d="M 1818.927979 478.724854 L 1782.739014 478.724854 L 1782.739014 498.808472 L 1816.938965 498.808472 L 1816.938965 509.230225 L 1782.739014 509.230225 L 1782.739014 537.461548 L 1770.991699 537.461548 L 1770.991699 468.303101 L 1818.927979 468.303101 L 1818.927979 478.724854 Z"/>
            <linearGradient id="linearGradient31" x1="1874.687377" y1="434.853412" x2="1874.687377" y2="564.308146" gradientUnits="userSpaceOnUse">
                <stop offset="1e-06" stop-color="#00fffb" stop-opacity="1"/>
                <stop offset="1" stop-color="#f5adff" stop-opacity="1"/>
            </linearGradient>
            <path id="path32" fill="url(#linearGradient31)" stroke="none" d="M 1866.069092 501.366089 C 1866.259033 503.925049 1866.354004 506.104126 1866.354004 508.945313 L 1866.354004 537.461548 L 1855.932373 537.461548 L 1855.36377 531.114258 C 1852.616211 537.650024 1846.174072 538.786987 1839.069824 538.786987 C 1830.353516 538.786987 1823.059326 533.576904 1823.059326 524.008667 C 1823.059326 511.12439 1833.006348 506.766235 1852.616211 506.766235 L 1854.890137 506.766235 L 1854.890137 505.25061 C 1854.890137 499.850586 1853.279541 496.250854 1845.511963 496.250854 C 1838.879883 496.250854 1835.848633 498.429932 1835.185303 503.640015 L 1824.763428 503.640015 C 1825.143555 493.219849 1831.112061 486.397583 1845.985352 486.397583 C 1859.911865 486.397583 1865.405518 492.651367 1866.069092 501.366089 Z M 1842.764648 528.935303 C 1848.82666 528.935303 1854.890137 525.619263 1854.890137 520.218994 L 1854.890137 515.860962 C 1842.479492 515.387451 1834.616943 516.334473 1834.616943 522.588013 C 1834.616943 526.661255 1837.837646 528.935303 1842.764648 528.935303 Z"/>
            <linearGradient id="linearGradient32" x1="1914.447634" y1="434.852823" x2="1914.447634" y2="564.309827" gradientUnits="userSpaceOnUse">
                <stop offset="1e-06" stop-color="#00fffb" stop-opacity="1"/>
                <stop offset="1" stop-color="#f5adff" stop-opacity="1"/>
            </linearGradient>
            <path id="path33" fill="url(#linearGradient32)" stroke="none" d="M 1906.114258 486.682617 L 1906.114258 496.250854 C 1894.556885 495.113892 1888.966797 500.892578 1888.966797 515.765991 L 1888.966797 537.461548 L 1877.504395 537.461548 L 1877.504395 487.724609 L 1888.019775 487.724609 L 1888.493408 496.819336 C 1889.345215 489.713745 1894.935547 486.397583 1902.324707 486.397583 C 1903.935303 486.397583 1905.072266 486.397583 1906.114258 486.682617 Z"/>
            <linearGradient id="linearGradient33" x1="1963.39762" y1="434.853412" x2="1963.39762" y2="564.308146" gradientUnits="userSpaceOnUse">
                <stop offset="1e-06" stop-color="#00fffb" stop-opacity="1"/>
                <stop offset="1" stop-color="#f5adff" stop-opacity="1"/>
            </linearGradient>
            <path id="path34" fill="url(#linearGradient33)" stroke="none" d="M 1955.064453 504.587158 L 1943.696777 504.587158 C 1943.222168 499.187012 1939.243896 496.250854 1933.085205 496.250854 C 1925.507324 496.250854 1921.054443 501.17749 1921.054443 512.451294 C 1921.054443 523.630127 1925.032471 528.935303 1932.991455 528.935303 C 1938.675537 528.935303 1942.938477 525.52417 1943.696777 520.597534 L 1955.064453 520.597534 C 1953.73877 531.587769 1946.349609 538.786987 1932.423096 538.786987 C 1916.412598 538.786987 1909.117188 529.123779 1909.117188 512.639771 C 1909.117188 496.060913 1916.601318 486.397583 1933.275146 486.397583 C 1948.243408 486.397583 1954.212158 493.78833 1955.064453 504.587158 Z"/>
            <linearGradient id="linearGradient34" x1="2013.011105" y1="434.853412" x2="2013.011105" y2="564.308146" gradientUnits="userSpaceOnUse">
                <stop offset="1e-06" stop-color="#00fffb" stop-opacity="1"/>
                <stop offset="1" stop-color="#f5adff" stop-opacity="1"/>
            </linearGradient>
            <path id="path35" fill="url(#linearGradient34)" stroke="none" d="M 2004.394287 501.366089 C 2004.582764 503.925049 2004.677734 506.104126 2004.677734 508.945313 L 2004.677734 537.461548 L 1994.257324 537.461548 L 1993.688965 531.114258 C 1990.941406 537.650024 1984.499023 538.786987 1977.393555 538.786987 C 1968.678711 538.786987 1961.383057 533.576904 1961.383057 524.008667 C 1961.383057 511.12439 1971.331299 506.766235 1990.941406 506.766235 L 1993.215332 506.766235 L 1993.215332 505.25061 C 1993.215332 499.850586 1991.60498 496.250854 1983.835693 496.250854 C 1977.204834 496.250854 1974.172363 498.429932 1973.510498 503.640015 L 1963.088623 503.640015 C 1963.467041 493.219849 1969.435791 486.397583 1984.309082 486.397583 C 1998.235596 486.397583 2003.730713 492.651367 2004.394287 501.366089 Z M 1981.088379 528.935303 C 1987.151855 528.935303 1993.215332 525.619263 1993.215332 520.218994 L 1993.215332 515.860962 C 1980.804688 515.387451 1972.941895 516.334473 1972.941895 522.588013 C 1972.941895 526.661255 1976.163086 528.935303 1981.088379 528.935303 Z"/>
            <linearGradient id="linearGradient35" x1="2063.941661" y1="434.853412" x2="2063.941661" y2="564.308146" gradientUnits="userSpaceOnUse">
                <stop offset="1e-06" stop-color="#00fffb" stop-opacity="1"/>
                <stop offset="1" stop-color="#f5adff" stop-opacity="1"/>
            </linearGradient>
            <path id="path36" fill="url(#linearGradient35)" stroke="none" d="M 2054.282715 502.314575 L 2042.914063 502.314575 C 2042.155518 497.197876 2038.555908 496.060913 2033.629395 496.060913 C 2029.17749 496.060913 2025.671631 497.671509 2025.671631 500.797607 C 2025.671631 504.208618 2028.608887 506.104126 2036.661865 507.334717 C 2049.734863 509.418823 2055.608398 513.966797 2055.608398 523.535156 C 2055.608398 533.576904 2046.608398 538.786987 2034.956299 538.786987 C 2021.218262 538.786987 2014.019287 533.955444 2012.692383 522.588013 L 2024.061035 522.588013 C 2025.103027 527.513306 2028.324219 529.123779 2035.239746 529.123779 C 2040.734863 529.123779 2044.051025 527.4198 2044.051025 524.387207 C 2044.051025 520.692505 2040.544922 518.51355 2032.303711 517.187988 C 2019.797852 515.103882 2014.114014 511.314331 2014.114014 501.366089 C 2014.114014 492.556274 2021.977051 486.397583 2033.914307 486.397583 C 2047.460693 486.397583 2053.619141 491.609253 2054.282715 502.314575 Z"/>
            <linearGradient id="linearGradient36" x1="2098.776721" y1="434.853433" x2="2098.776721" y2="564.309003" gradientUnits="userSpaceOnUse">
                <stop offset="1e-06" stop-color="#00fffb" stop-opacity="1"/>
                <stop offset="1" stop-color="#f5adff" stop-opacity="1"/>
            </linearGradient>
            <path id="path37" fill="url(#linearGradient36)" stroke="none" d="M 2090.063477 528.555298 L 2090.063477 537.934937 C 2087.222412 538.313477 2084.758301 538.503418 2080.875244 538.503418 C 2071.590332 538.503418 2068.464355 534.713989 2067.990967 528.650269 C 2067.801025 525.997803 2067.801025 524.008667 2067.801025 521.166016 L 2067.801025 497.387939 L 2060.790283 497.387939 L 2060.790283 487.914551 L 2067.801025 487.914551 L 2067.801025 473.134766 L 2079.264648 473.134766 L 2079.264648 487.914551 L 2090.443359 487.914551 L 2090.443359 497.387939 L 2079.264648 497.387939 L 2079.264648 520.882446 C 2079.264648 528.555298 2080.875244 529.123779 2090.063477 528.555298 Z"/>
            <linearGradient id="linearGradient37" x1="2151.146274" y1="434.853412" x2="2151.146274" y2="564.308146" gradientUnits="userSpaceOnUse">
                <stop offset="1e-06" stop-color="#00fffb" stop-opacity="1"/>
                <stop offset="1" stop-color="#f5adff" stop-opacity="1"/>
            </linearGradient>
            <path id="path38" fill="url(#linearGradient37)" stroke="none" d="M 2142.812744 511.78772 C 2142.812744 513.113403 2142.718018 514.91394 2142.624512 516.429443 L 2107.950928 516.429443 C 2108.802979 525.619263 2112.876221 528.935303 2120.07666 528.935303 C 2125.855469 528.935303 2129.266602 526.756226 2130.592041 522.681641 L 2141.960938 522.681641 C 2140.065186 532.913452 2132.202637 538.786987 2119.698242 538.786987 C 2104.066406 538.786987 2096.013672 529.882202 2096.013672 512.829834 C 2096.013672 496.345825 2103.687744 486.397583 2120.07666 486.397583 C 2136.182129 486.397583 2142.812744 497.197876 2142.812744 511.78772 Z M 2130.970459 507.429688 C 2130.118652 499.376953 2125.950439 496.250854 2119.603271 496.250854 C 2112.876221 496.250854 2108.897949 499.093506 2108.044434 507.429688 L 2130.970459 507.429688 Z"/>
            <linearGradient id="linearGradient38" x1="2189.95098" y1="434.852823" x2="2189.95098" y2="564.309827" gradientUnits="userSpaceOnUse">
                <stop offset="1e-06" stop-color="#00fffb" stop-opacity="1"/>
                <stop offset="1" stop-color="#f5adff" stop-opacity="1"/>
            </linearGradient>
            <path id="path39" fill="url(#linearGradient38)" stroke="none" d="M 2181.617676 486.682617 L 2181.617676 496.250854 C 2170.058838 495.113892 2164.470215 500.892578 2164.470215 515.765991 L 2164.470215 537.461548 L 2153.006592 537.461548 L 2153.006592 487.724609 L 2163.523193 487.724609 L 2163.996582 496.819336 C 2164.848877 489.713745 2170.438965 486.397583 2177.827881 486.397583 C 2179.438477 486.397583 2180.575684 486.397583 2181.617676 486.682617 Z"/>
        </g>
    </g>
</svg>
