<?xml version="1.0" encoding="UTF-8"?>
<!-- Generated by Pixelmator Pro 3.5.7 -->
<svg width="2165" height="656" viewBox="0 0 2165 656" xmlns="http://www.w3.org/2000/svg">
    <g id="Layer-1">
        <g id="Group">
            <g id="g1">
                <linearGradient id="linearGradient1" x1="297.027941" y1="150.841354" x2="-0.813417" y2="448.682713" gradientUnits="userSpaceOnUse">
                    <stop offset="1e-06" stop-color="#00fffb" stop-opacity="1"/>
                    <stop offset="1" stop-color="#f5adff" stop-opacity="1"/>
                </linearGradient>
                <path id="Path" fill="url(#linearGradient1)" stroke="none" d="M 70.454102 305.426147 L 70.454102 305.426147 C 53.828369 288.80188 53.828369 261.8479 70.454102 245.222168 L 201.626709 114.049561 C 218.252441 97.423828 245.206421 97.423828 261.830688 114.049561 L 261.830688 114.049561 C 278.455078 130.673828 278.455078 157.627686 261.830688 174.253418 L 130.656616 305.426147 C 114.032227 322.050415 87.078369 322.050415 70.454102 305.426147 Z"/>
                <linearGradient id="linearGradient2" x1="392.720535" y1="246.533894" x2="94.877535" y2="544.376895" gradientUnits="userSpaceOnUse">
                    <stop offset="1e-06" stop-color="#00fffb" stop-opacity="1"/>
                    <stop offset="1" stop-color="#f5adff" stop-opacity="1"/>
                </linearGradient>
                <path id="path1" fill="url(#linearGradient2)" stroke="none" d="M 99.008545 234.301514 L 99.008545 234.301514 C 122.520264 234.301514 141.578735 253.359985 141.578735 276.871582 L 141.578735 462.378906 C 141.578735 485.88916 122.520264 504.949097 99.008545 504.949097 L 99.008545 504.949097 C 75.496948 504.949097 56.438354 485.88916 56.438354 462.378906 L 56.438354 276.871582 C 56.438354 253.359985 75.496948 234.301514 99.008545 234.301514 Z"/>
                <linearGradient id="linearGradient3" x1="304.461287" y1="158.184562" x2="6.59106" y2="456.054789" gradientUnits="userSpaceOnUse">
                    <stop offset="1e-06" stop-color="#00fffb" stop-opacity="1"/>
                    <stop offset="1" stop-color="#f5adff" stop-opacity="1"/>
                </linearGradient>
                <path id="path2" fill="url(#linearGradient3)" stroke="none" d="M 172.964478 301.466553 L 127.031494 347.399536 L 122.826416 351.604492 L 107.271118 367.161255 L 1.844482 472.586548 C -0.993896 475.424805 -0.993896 480.049561 1.844482 482.887817 L 143.743652 624.786987 L 172.964478 654.007813 C 175.802734 656.846191 180.42749 656.846191 183.265747 654.007813 L 322.37915 514.894531 L 354.385864 482.887817 C 357.224121 480.049561 357.224121 475.424805 354.385864 472.586548 L 183.265747 301.466553 C 180.42749 298.628052 175.802734 298.628052 172.964478 301.466553 Z"/>
                <linearGradient id="linearGradient4" x1="205.943143" y1="643.115577" x2="412.663668" y2="436.395051" gradientUnits="userSpaceOnUse">
                    <stop offset="1e-06" stop-color="#00fffb" stop-opacity="0"/>
                    <stop offset="1" stop-color="#000000" stop-opacity="1"/>
                </linearGradient>
                <path id="path3" fill="url(#linearGradient4)" stroke="none" d="M 209.333618 327.53418 L 127.031494 347.399536 L 107.690674 352.076538 C 107.690674 352.235352 108.269165 356.912476 109.372192 365.058716 C 114.680176 405.631348 131.603638 533.130737 143.743652 624.786987 L 172.964478 654.007813 C 175.802734 656.846191 180.42749 656.846191 183.265747 654.007813 L 322.37915 514.894531 L 354.385864 482.887817 C 357.224121 480.049561 357.224121 475.424805 354.385864 472.586548 L 209.333618 327.53418 Z"/>
                <linearGradient id="linearGradient5" x1="111.966112" y1="312.33154" x2="598.677716" y2="-174.380064" gradientUnits="userSpaceOnUse">
                    <stop offset="1e-06" stop-color="#000034" stop-opacity="1"/>
                    <stop offset="1" stop-color="#f5adff" stop-opacity="1"/>
                </linearGradient>
                <path id="path4" fill="url(#linearGradient5)" stroke="none" d="M 288.998657 543.553955 L 118.66394 373.219116 C 103.254761 357.809937 103.254761 332.828125 118.66394 317.420166 L 315.942627 120.140015 C 331.351929 104.7323 356.333862 104.7323 371.741699 120.140015 L 542.077759 290.474854 C 557.485596 305.884155 557.485596 330.865967 542.077759 346.275146 L 344.797729 543.553955 C 329.389893 558.963257 304.406494 558.963257 288.998657 543.553955 Z"/>
                <linearGradient id="linearGradient6" x1="111.96616" y1="312.331492" x2="598.676552" y2="-174.3789" gradientUnits="userSpaceOnUse">
                    <stop offset="1e-06" stop-color="#000034" stop-opacity="1"/>
                    <stop offset="1" stop-color="#f5adff" stop-opacity="1"/>
                </linearGradient>
                <path id="path5" fill="url(#linearGradient6)" stroke="none" d="M 323.628174 195.576172 L 323.628174 195.576172 C 300.675171 172.623047 300.675171 135.409058 323.628174 112.45459 L 419.005981 17.078125 C 441.959106 -5.874878 479.173096 -5.874878 502.126099 17.078125 L 502.126099 17.078125 C 525.079102 40.03125 525.079102 77.245361 502.126099 100.198364 L 406.749634 195.576172 C 383.796631 218.529297 346.581177 218.529297 323.628174 195.576172 Z"/>
                <linearGradient id="linearGradient7" x1="474.684435" y1="206.152497" x2="474.684435" y2="517.582767" gradientUnits="userSpaceOnUse">
                    <stop offset="1e-06" stop-color="#00fffb" stop-opacity="1"/>
                    <stop offset="1" stop-color="#f5adff" stop-opacity="1"/>
                </linearGradient>
                <path id="path6" fill="url(#linearGradient7)" stroke="none" d="M 422.448242 413.825806 C 378.543945 466.341431 300.381592 473.322388 247.867554 429.418091 C 195.353394 385.515259 188.372314 307.352783 232.275269 254.838623 C 276.178101 202.32312 354.340454 195.342285 406.856079 239.24646 C 459.370239 283.149292 466.351074 361.311768 422.448242 413.825806 Z"/>
                <g id="g2">
                    <path id="path7" fill="#000034" stroke="none" d="M 395.653076 292.965698 L 395.653076 292.965698 C 401.36377 298.676392 401.36377 307.937012 395.653076 313.648926 L 318.235107 390.349731 C 313.064575 395.471924 304.726929 395.452148 299.580566 390.305664 L 254.766113 345.492676 C 249.055542 339.78064 249.055542 330.521362 254.766113 324.809326 L 254.766113 324.809326 C 260.478149 319.098755 269.73877 319.098755 275.449463 324.809326 L 309.287842 358.647827 L 374.969971 292.965698 C 380.680542 287.253662 389.94104 287.253662 395.653076 292.965698 Z"/>
                </g>
                <path id="path8" fill="none" stroke="none" d="M 395.653076 292.965698 L 395.653076 292.965698 C 401.36377 298.676392 401.36377 307.937012 395.653076 313.648926 L 318.235107 390.349731 C 313.064575 395.471924 304.726929 395.452148 299.580566 390.305664 L 254.766113 345.492676 C 249.055542 339.78064 249.055542 330.521362 254.766113 324.809326 L 254.766113 324.809326 C 260.478149 319.098755 269.73877 319.098755 275.449463 324.809326 L 309.287842 358.647827 L 374.969971 292.965698 C 380.680542 287.253662 389.94104 287.253662 395.653076 292.965698 Z"/>
            </g>
            <text id="Snapcaster" xml:space="preserve" x="612" y="401" font-family="Poppins" font-size="267.139167" font-weight="500" fill="#fafafa">Snapcaster</text>
        </g>
    </g>
</svg>
